<svg xmlns="http://www.w3.org/2000/svg" viewBox="0 0 670.58 293.91"><defs><style>.cls-1{fill:#f8f8f8;}.cls-2{fill:#c3031c;}.cls-3{fill:#fcd502;}.cls-4{fill:#0d0d0e;}.cls-5{fill:#100f10;}.cls-6{fill:#171615;}</style></defs><g id="Calque_2" data-name="Calque 2"><g id="Calque_1-2" data-name="Calque 1"><path class="cls-1" d="M637.55,236.58l.62-1a19.28,19.28,0,0,1,3.12-3.2,8.17,8.17,0,0,1,8.06-.9c2.37,1,3,3.36,3,5.63.1,11.07.08,22.14,0,33.22,0,2.36-1,4.19-3.56,4.76-.71.15-1.66.16-1.42,1.26.21.92,1.09.57,1.69.57q9.85,0,19.73,0c.62,0,1.65.52,1.74-.73s-.92-.92-1.58-1.06c-3.36-.74-4.34-1.81-4.63-5.2-.09-1-.08-2-.09-3-.17-9.65.33-19.31-.33-29-.36-5.38-2.84-9-7.46-10.33-6.77-1.94-16.36-.22-20.08,7.83-.2.43-.38.94-1,1l-.93-2.76,0-.16-.13-.08a3.1,3.1,0,0,0-1-1.94c-3.28-5.72-15.45-6.54-21.59-.36a58.72,58.72,0,0,0-4,5.06c0-2.85,0-5.16,0-7.48,0-1,0-1.89-1.44-1.69-5.14.73-10.31.32-15.47.4-.87,0-1.51.15-1.4,1.19.08.83-.39,1.81.94,2.24,4.63,1.53,5.42,2.59,5.44,7.46,0,10.07,0,20.15,0,30.23,0,4.53-.68,5.38-5.09,6.57-.55.15-1.24.09-1.23.91,0,1,.82.85,1.46.85q10.13,0,20.24,0c.58,0,1.45.35,1.55-.71s-.64-1-1.31-1.11c-2.57-.44-3.66-2.12-3.66-4.58,0-9.66-.1-19.32.05-29,.07-4.86,3.84-9.48,8-10.5,4.77-1.15,7.82,1,7.87,5.9.13,11.15.06,22.31,0,33.47,0,2.45-1.08,4.14-3.6,4.68-.63.13-1.44.06-1.38,1.05s.9.77,1.5.78c1,0,2-.06,3-.09h11a23.11,23.11,0,0,0,3.22.06c1.3-.14,3.56.73,3.74-.49.33-2.16-2.38-1-3.42-1.95l-1.21-1.18-.11-.13a11.2,11.2,0,0,1-.78-4.86c0-7.3,0-14.6,0-21.9a27,27,0,0,1,.56-7.39l.13-.1-.06-.15,1-2.12ZM558.33,276h.1c3.78-.59,5.76-3.62,8-6.32l.59.26v6.56c-.17.89.34.94,1,.85,5.14-.68,10.31-.25,15.47-.37.58,0,1.42.38,1.52-.7s-.61-1-1.3-1.11c-3.15-.6-4.66-2.62-4.85-5.74-.07-1.08-.2-2.16-.2-3.24q0-14.61,0-29.23c0-3,0-6,0-9,0-.87.05-1.74-1.31-1.43-5.16,1.16-10.41,1.09-15.65.94-.53,0-1.22-.29-1.26.69,0,.77.38.88,1,1.08,4.25,1.32,5.38,2.85,5.42,7.39,0,5.25.08,10.5,0,15.74-.08,4.73.45,9.49-.44,14.19-1.48,4-3.74,7.2-8,8.62l-1.14.24-.56,0c-4.82-.84-6.17-2.35-6.45-7.24,0-.75,0-1.5,0-2.25q0-17.47,0-34.95c0-4.36,0-4.49-4.24-3.95a87.79,87.79,0,0,1-12.45.43c-.6,0-1.44-.32-1.55.72s.74.87,1.35,1c3.48,1,4.71,2.56,5,6.22.06.82.06,1.66.06,2.49,0,8,0,16,0,24a34.48,34.48,0,0,0,.7,7.18c1.72,7.45,11.32,11,18.87,7Q558.25,276.17,558.33,276ZM334.22.78l.09-.16-.15.08c-.5-1-1.44-.64-2.19-.61-2.88.13-5.76.38-8.64.54-2.08.11-3.49.56-2.51,3.16a20.79,20.79,0,0,1,.69,3.63c-2.17-.13-4.07,1.29-6.25,1.07-.34-1.53-.73-3.06-1-4.61-.21-1.28-.82-1.62-2-1.25-2,.6-4,1.11-5.95,1.73-5.65,1.79-5.64,1.81-3.24,7.23a2.52,2.52,0,0,0,.49.55c-2.06.65-3.86,1.95-6,2.35-2.65-5.92-2.65-5.92-8.35-2.74l-.65.36c-5.46,3.11-5.46,3.11-2.09,8.24a1.6,1.6,0,0,1,.1.23,26.55,26.55,0,0,1-4.92,3.79c-1-1.32-2-2.62-3-4-.6-.87-1.1-1-1.93-.24-1.46,1.35-3,2.56-4.53,3.89-4.75,4.23-4.74,4.24.17,8.54,0,.74-1.19.95-.85,1.82.76.41,1.65-.29,2.33.38-1.21,2.05-3.77,1.21-5.56,2.58l3.51,1c-1.46,1.36-3.28.27-4.7.87.12,1.37,1.92.79,1.92,2.18h-3.5c.84-1.25,2.31-2.47,2.37-3.75.09-1.66-2.16-2.14-3.22-3.32-.88-1-1.48-.88-2.3.19-2.11,2.76-4.15,5.57-6,8.52-.21.34-.58,1-.46,1.08a12.91,12.91,0,0,0,4.71,3.06c1.18.52,1.15-1.3,1.91-1.81,3,1.12,5.11-.21,7.07-2.26.33-.34.46-1.18,1.44-.62a15.55,15.55,0,0,1,2.58,2.4c-.75.5-.16,1.75-1.56,2.11-2.3.57-4.52,1.37-7.13,1,1.41,1.83,1.79,2,3.86,1.29.71-.25,2-.25,1.87,0-1.08,3,1.79-.34,1.55,1.2.07.45-.62,1.05,0,1.71,2-1,2.52-3.1,3.49-5,1.07,1.79-.26,3.11-.28,4.54.72.26,1.44-.6,2.1.12-.19,1.21-1.36,1.61-2.05,2.44,1.06.64,2.23,1.12,2.85,2.31.69,1.35.43,1.92-1.19,1.9-1.3,0-2.16-1.13-3.4-1.25-.33.93-.08,2.07-1.14,2.59-1-.31-.41-1.35-1-1.86-1.26.85-1.88,2.81-4.05,2.39,1.47-1.62,3-3.06,2.84-5.6l-1.74,1.13c-.5-.48,0-1.36-.82-1.7-.28.62-.5,1.15-1,2.25-.67-2.59,0-5.48-3.66-6.12,1.86,2.39,2.14,4.68,2.48,7a1.72,1.72,0,0,1-1.07,1.86c-.91-.11-1.82.58-2.87-.43-.82-.77-.78-1.13-.52-1.92a7.2,7.2,0,0,0,.25-5.11c-.3-.75-.76-1.85-1.59-1.49a1.55,1.55,0,0,0-.57,2.49c.35.48,1.05,1,.57,2L258,53.49c-.95-1.62-2.86-1.74-4.23-2.7-1-.71-1.56-.4-2,.67-1.38,3-2.63,6.06-3.85,9.13-.63,1.6-.24,2,1.25,2.65s3.41.13,4.06,2.14q-.88,2.57-1.78,5.13c-1.43-.39-2.9-.69-4.3-1.18s-1.95-.29-2.17,1.25c-.31,2.12-.89,4.2-1.27,6.32-1,5.23-.93,5.24,4.49,5.73l1.24.11c0,.91,0,1.82,0,2.72a111.36,111.36,0,0,0,.08,14.5c-.56-2-.32-4.12-.33-6.18,0-4.74,0-4.74-4.68-5l-.49,0c-1-.11-1.51.25-1.47,1.38.09,2.4,0,4.8.14,7.2.27,4.71.31,4.7,5.07,4.24.58-.06,1.16-.1,1.74-.15-.21,2.11,1.12,4,.95,6.09-2.06.5-5.14,0-5.95,1.53s.61,4,1,6.13a2.17,2.17,0,0,0,0,.25c1.65,6.44,1.65,6.44,7.92,4.17.76,1.93,1.94,3.7,2.09,5.85-1.77,1-4.69,1-5.24,2.73s1.43,3.67,2.25,5.54c.1.23.24.44.36.66,3,5.81,3,5.81,8.47,2.11a31.41,31.41,0,0,1,3.32,5.2c-1.26.94-2.49,1.93-3.81,2.79-1,.66-1.12,1.22-.31,2.15,2.06,2.4,4.13,4.8,6,7.32,1.31,1.75,2.26,1.69,3.54,0a22.69,22.69,0,0,1,2.7-2.57l4.48,4.13c-1.1,1.79-4.07,3-3.58,4.9.45,1.71,3.05,2.85,4.69,4.23a1.3,1.3,0,0,0,.2.15l5.12,3.49,3.49-5.13c1.76,1.1,3.82,1.73,5.27,3.32-.8,1.86-3.07,3.68-2.46,5.36s3.4,2.05,5.21,3c.36.19.75.34,1.13.51,5.21,2.35,5.21,2.35,7.22-2.9.11-.31.26-.6.39-.91l5.84,2c-.47,1.58-.86,3.19-1.43,4.73-.44,1.17-.13,1.56,1.05,1.8,2.59.53,5.12,1.29,7.71,1.79,3.82.74,3.84.68,4.53-3.26.13-.73.22-1.47.33-2.2,2,.17,4.16-.49,6,.77,0,1.4,0,2.82-.18,4.2s.3,2.06,1.85,2c3.22-.09,6.44-.07,9.66,0,1.25,0,1.8-.37,1.63-1.74s-.14-3-.19-4.43c1.87-1.29,4-.61,6-.83.73,6.27.73,6.27,6.84,5.05.4-.08.8-.2,1.2-.3,6.18-1.46,6.18-1.46,4.12-7.6a33,33,0,0,1,6-2c.56,1.55,1.14,3.09,1.68,4.65.32.94.78,1.3,1.79.82,1.64-.79,3.36-1.41,5-2.22,1.92-.94,4.71-1.39,5.41-3.17.6-1.51-1.68-3.36-2.44-5.19,1.38-1.65,3.32-2.46,5.18-3.38.77,1.18,1.63,2.31,2.3,3.55.75,1.4,1.48,1.71,2.8.6,1.85-1.54,3.85-2.88,5.74-4.37,3.32-2.63,3.31-2.65.59-5.71-.49-.55-1-1.06-1.55-1.59.24-1,1.13-1.41,1.79-2,1-.88,1.23-1.47,0-2.41a28.25,28.25,0,0,1-4-3.72,4.77,4.77,0,0,1-.55-5.81c1.06-1.92,2.95-2.26,5-1.84.89.18,1.76.5,2.65.67a5.25,5.25,0,0,0,5.39-1.75,1.63,1.63,0,0,0,.12-2.33c-1.23-1.9-2.93-2.47-4.95-2.86a3.31,3.31,0,0,1-2.95-3.21,3.74,3.74,0,0,1,2.2-3.85c1.67-.84,3.08-.25,4.32.88a17.19,17.19,0,0,1,1.21,1.57,4.52,4.52,0,0,0,4.73,1.61c1.59-.55,1.38-2.61,1.21-4.21a4.88,4.88,0,0,0-1.47-2.82,20.6,20.6,0,0,1-1.75-2.09c-1.1-1.6-1.66-3.3-.33-5a4.68,4.68,0,0,1,5.45-2c2.14.66,4.23,1.44,6.35,2.17.32,1-1.51,2.07.18,3,4.34,2.39,5.18,2.07,6.5-2.64.24-.88.49-1.76.73-2.64,1.54-5.92,1.54-5.92-4.53-7l-.24-.08c0-2.08-.16-4.17.77-6.13.9.1,1.81.2,2.71.32,3.45.47,3.47.48,3.81-2.92A30.89,30.89,0,0,0,425.9,95c0-2.12.94-4.85-.4-6.2s-3.94-.11-6-.26c-.06-2-.11-4-.17-6,1.55-.2,3.11-.42,4.66-.6.94-.1,1.55-.35,1.32-1.53-.71-3.56-1.32-7.15-2-10.71-.1-.53-.24-1.33-1.06-1-1.79.7-3.92.45-5.44,1.91-.29-2.21-1.56-4.17-1.54-6.45,1.85-.82,4.84-.72,5.36-2.36s-1.13-3.78-1.82-5.71c-.09-.23-.22-.44-.31-.67-2.5-5.88-2.5-5.88-8.14-2.83a15.08,15.08,0,0,1-3.05-5.4c1.41-.86,2.8-1.75,4.23-2.55.82-.46,1-.85.42-1.71a104.83,104.83,0,0,0-6.49-9c-.33-.4-.57-1.06-1.3-.38-1.41,1.33-3.11,2.32-4.32,3.86-1.06-1.86-2.77-3.17-4.08-4.82a26.82,26.82,0,0,1,2.48-2.41c1.83-1.39,2.14-2.58.09-4.13s-3.69-3.33-5.58-4.94c-2.41-2.05-2.44-2-4.45.58-.61.79-1.22,1.57-1.84,2.35-2-.77-3.43-2.25-5.07-3.48.9-1.37,1.75-2.79,2.73-4.11.65-.86.61-1.37-.35-1.9-1.94-1.1-3.81-2.32-5.76-3.38-4.79-2.6-4.8-2.58-7.07,2.22-.18.37-.36.74-.53,1.11l-5.86-2.34c.65-1.59,1.22-3.21,2-4.75.51-1,.21-1.47-.79-1.78-2.6-.79-5.16-1.7-7.78-2.43-3.76-1-3.78-1-4.69,2.94-.18.8-.3,1.61-.45,2.42A31.37,31.37,0,0,1,346.4,7c.8-1.25.5-2.75.92-4.09s0-2.15-1.57-2.23c-3.32-.17-6.63-.44-9.95-.63C335.22.05,334.4-.23,334.22.78ZM176.67,230.56l.8-.38,1-.34,1.22-.33h.15l1.94,0,0,1.05c-2.7,2.53-3.46,5.92-1.91,8.46,1.41,2.32,5.06,3.4,8,2.38A6.81,6.81,0,0,0,192,234.1c-.39-3.22-2-5.64-5.2-6.63A11.28,11.28,0,0,0,175.47,230c-2.16,1.08-3,3.49-5.13,5.48v-7c.22-.9,0-1.56-1.07-1.42-5.3.7-10.63.32-16,.41-.49,0-1-.05-1.12.65a.85.85,0,0,0,.83,1c4.66.6,5.5,4,5.51,7.8q0,16,0,31.94c0,4.16-1,5.25-4.92,6.22-.63.16-1.45.09-1.38,1.06s.93.75,1.54.75q12.1,0,24.21,0c.57,0,1.45.38,1.54-.69.1-1.23-.92-.92-1.58-1-2.39-.38-4.76-.8-6.51-2.72a11.53,11.53,0,0,1-1-5.32c0-7.22.2-14.45,0-21.67C170.19,239.42,172.14,234.5,176.67,230.56Zm276.19,4c1.67-1.21,2.74-2.09,3.92-2.82,5-3.1,9.94-1.48,12.17,4a18.54,18.54,0,0,1,1,3.07,69.3,69.3,0,0,1,.44,23.34,19.26,19.26,0,0,1-3.65,9.68A9.84,9.84,0,0,1,454.1,274a4.94,4.94,0,0,1-2.58-4.7c.13-9.33.09-18.65,0-28,0-1.79,1.28-3.7.76-5-1-2.64-.53-5.2-.7-7.78-.07-1.06-.35-1.5-1.48-1.37-5,.62-10,.25-15,.38-.62,0-1.65-.48-1.7.78,0,1,.87.85,1.45.95,3,.54,4.33,2.55,4.67,5.38a24.93,24.93,0,0,1,.23,3.23q0,23.85,0,47.71c0,.74-.08,1.49-.15,2.23a4.34,4.34,0,0,1-3.91,4.2c-.74.14-1.94-.1-1.69,1.2.19,1,1.21.65,1.9.65q11.12,0,22.23,0c.71,0,1.89.54,1.93-.83s-1.19-.84-1.89-1c-5.13-.81-6.64-2.57-6.63-7.83,0-1.84,0-3.67,0-5.5,0-1.32-.42-3.23.26-3.82,1-.92,2.1,1,3.33,1.28.88.21,1.72.61,2.6.8,10.21,2.22,19.35-2.71,23.19-12.6A40.33,40.33,0,0,0,482.85,243a20.2,20.2,0,0,0-5.78-11.88C469.11,223.45,456.1,227.32,452.86,234.54Zm-161.72,1.22c0-2.38,0-4.76,0-7.14,0-.92,0-1.73-1.3-1.56-5.22.71-10.47.33-15.71.4-.83,0-1.3.27-1.2,1.13s-.45,1.83.85,2.3c4.61,1.65,5.55,2.86,5.57,7.64q.08,15.1,0,30.21c0,4.25-1,5.38-5.07,6.4-.66.17-1.41.12-1.29,1.09s.81.68,1.37.68h21c.59,0,1.22.1,1.17-.82,0-.58-.32-.77-.88-1-3.94-1.36-4.49-2.19-4.5-6.47,0-8.5.21-17-.09-25.47a13.67,13.67,0,0,1,2.72-8.57c1.86-2.73,7.07-4.49,10.3-3.58,2.76.77,4.29,3.28,4.32,7.65q.09,15.23,0,30.46c0,3.86-.84,4.88-4.34,6-.56.18-1.17.16-1.15,1s.64.81,1.22.81h21.23c.6,0,1.21.06,1.19-.83,0-.64-.44-.75-1-.92-5.1-1.66-5.41-2.13-5.44-7.54-.05-9.49-.1-19-.21-28.46-.07-6.59-3.18-10.54-9.19-11.84C302.75,225.61,296.19,228.51,291.14,235.76ZM57.54,251.81c0,1.59-.07,2.84,0,4.09A25.61,25.61,0,0,0,61,268c4.94,8.05,12.75,9.94,21.4,9.33,10.7-.75,17.24-6.78,19.31-17.28a41,41,0,0,0,.68-10.19c-.68-12-5.74-20.94-18.42-22.65-10.35-1.4-20.66,1.72-24.74,12.91A29.16,29.16,0,0,0,57.54,251.81ZM25.2,276.91c8,0,16,0,24,0,1.36,0,2-.25,1.8-1.78-.74-6.13-.45-12.29-.41-18.45,0-.65.39-1.64-.85-1.67-1,0-1.15.74-1.23,1.53a30.54,30.54,0,0,1-2,7.71c-2.33,6.13-6.37,10.29-13.22,10.89-2.15.19-4.33.07-6.49.06-5.52,0-6.8-1.25-6.81-6.75q0-24.72,0-49.45c0-5.51.87-6.48,6.18-7.4.6-.11,1.5.2,1.49-.83,0-1.27-1.08-.79-1.7-.79Q14,210,2,210c-.66,0-1.84-.71-2,.66s1.12.88,1.79,1c4.15.69,5.25,1.68,5.27,5.81q.09,26,0,52c0,4.23-1.1,5.18-5.26,5.76-.69.09-1.92-.47-1.78,1s1.31.7,2,.7C9.71,276.94,17.46,276.92,25.2,276.91Zm181.06-45.37c3.14-2.94,8.18-3.86,11.66-2.23s4.14,4.93,4.22,8.38c0,2,0,4,0,6a5,5,0,0,1-2.75,4.69,41.45,41.45,0,0,1-7.34,3.08,54,54,0,0,0-9.64,4c-4.23,2.42-6.66,6-6.31,11,.29,4.22,1.93,7.71,6.17,9.45,5.35,2.18,13.16.62,17.19-3.5.83-.85,1.55-1.81,2.51-2.94.78,2.46,1.21,4.74,3.28,6.06,3.58,2.28,11.35,1.51,14.37-1.46.31-.3,1.13-.62.46-1.37-.46-.51-.81-.24-1.29,0-3.75,1.55-5,.73-5-3.41,0-8.24,0-16.48,0-24.72a45.15,45.15,0,0,0-.6-8c-.68-3.87-2.81-6.77-6.37-8-8.69-3-17.15-2.47-25,2.8a7.39,7.39,0,0,0-3.42,6.07,6,6,0,0,0,5.44,6.56c4.15.34,7.13-1.63,7.48-5.22S209.85,232.87,206.26,231.54ZM408.9,243.72c0,8.5.07,17,0,25.49-.05,4.4-1.06,5.34-5.37,6-.69.1-1.94-.4-1.75,1.05s1.32.68,2,.69c7.75,0,15.5,0,23.24,0,.65,0,1.83.72,1.93-.72s-1.12-.89-1.8-1c-4.22-.65-4.84-1.26-5.29-5.49a27.1,27.1,0,0,1-.17-3q0-15.1,0-30.23c0-5.83-.06-11.66,0-17.49.07-5.59.92-6.55,6-7.35.6-.09,1.41.2,1.32-.92s-1-.7-1.5-.7q-12.13,0-24.25,0c-.52,0-1.4-.45-1.5.59s.57.93,1.3,1.05c5.09.87,5.8,1.57,5.87,6.84C409,226.9,408.9,235.31,408.9,243.72ZM358,246.6h9.49c4.4,0,4.49,0,4-4.46-.66-6.16-3.21-11.1-9.23-13.73-8.92-3.89-20.81-.44-26.13,7.69-4.13,6.3-4.62,13.32-4.2,20.61.75,12.91,10,21.38,22.86,20.75,7.15-.35,14.54-5.94,16.57-12.52.22-.71.34-1.22-.5-1.63s-1,.31-1.31.71a11.68,11.68,0,0,0-.8,1.26c-4.9,7.43-17.58,9-22.5-1.74-2.26-4.95-2.38-10.13-2.06-15.4.08-1.33.91-1.56,2.05-1.54C350.12,246.62,354,246.6,358,246.6Zm134.49,21.09h-.22c0,2.58,0,5.16,0,7.73,0,.54-.3,1.26.5,1.47a1.27,1.27,0,0,0,1.58-.82c1.64-3.11,1.75-3.23,4.72-1.42,5.09,3.11,10.55,3.5,16.11,2.12,5.21-1.29,9.75-3.95,11.17-9.56,1.45-5.77-.5-10.57-5.15-14.39-3.86-3.17-7.95-6-12-8.9a15.81,15.81,0,0,1-5.08-5c-2.55-4.64-.08-9.7,5.06-10.27a9.71,9.71,0,0,1,7.48,2.11c3.19,2.62,4.59,6.19,5.48,10.08.17.76-.25,2.28,1.36,2.19s.93-1.5,1-2.3c.17-4,.24-8,.27-12,0-.58.64-1.56-.65-1.76-1-.15-1.18.58-1.45,1.31-1,2.63-1.62,2.9-4,1.51a21,21,0,0,0-12.2-2.82c-9.29.54-14.87,6.69-13.58,15a13.4,13.4,0,0,0,5.13,8.3c2.88,2.4,5.95,4.55,8.87,6.89a51,51,0,0,1,5.64,4.92c2.84,3.06,3.13,8.23.88,11.07-2.13,2.68-6.85,3.45-10.57,1.76a11.81,11.81,0,0,1-6-6.71,37.82,37.82,0,0,1-2.15-8.43c-.13-.8-.26-1.46-1.33-1.3s-.82.89-.83,1.51C492.43,262.52,492.44,265.11,492.44,267.69ZM127,235c0-2.14,0-4.28,0-6.41,0-1-.19-1.65-1.38-1.48-5.14.72-10.31.31-15.46.42-.53,0-1.23-.25-1.32.67s.43.95,1.07,1c3.78.55,5.1,3.13,5.12,6.55.07,11.23.14,22.46,0,33.7,0,3.88-1,4.71-4.92,5.67-.67.16-1.4.16-1.27,1.12s.79.69,1.36.69H135c.62,0,1.19,0,1.19-.84s-.54-.89-1.18-.91a10.57,10.57,0,0,1-1.48-.22c-4.9-.78-6.48-2.59-6.49-7.47,0-8.07,0-16.15,0-24.22a16.14,16.14,0,0,1,4.73-11.21,6.45,6.45,0,0,1,6.86-2.1c-.59.72-1.22,1.37-1.72,2.11-2.55,3.77-1,8.37,3.14,9.38,3.75.91,6.87-.57,8.15-3.89a7.94,7.94,0,0,0-3.17-9.38c-3.79-2.22-8.92-1.51-13,1.7C130.15,231.34,128.9,233.29,127,235Zm134.91,13.77V228.23c0-1,.21-2.07-1.52-1.7a61.12,61.12,0,0,1-14.67.92c-.63,0-1.63-.57-1.83.6s.8,1,1.48,1.2c3.22.92,4.46,2.22,4.62,5.64.5,11.48.29,23,.11,34.46-.06,4-1,4.84-4.85,5.77-.64.16-1.44.07-1.35,1.05s1,.73,1.55.73q10.74,0,21.49,0c.51,0,1.27.32,1.36-.6s-.56-1.11-1.27-1.17c-3.79-.31-5.09-2.55-5.11-6.67C261.92,261.88,261.94,255.3,261.93,248.72ZM263,210.43c0-4.13-3.23-7-7.78-6.9-4.4.07-7.46,3-7.44,7s3.15,6.87,7.57,6.89S263.06,214.59,263,210.43Zm137-54.23c.88-1.19,1.15-1.6,1.46-2,1.5-1.77,3.05-3.51,4.52-5.31,3.15-3.89,3.11-3.87-1-6.7-.91-.62-1.3-.77-2.07.28-1.66,2.27-3.57,4.35-5.35,6.53-.57.7-2,1.23-1.37,2.26A47.92,47.92,0,0,0,400.09,156.2Zm18.4-28c.16-.75-.37-.92-.8-1.12-1.05-.47-2.16-.84-3.18-1.37-1.27-.67-1.8-.32-2.31,1a55.14,55.14,0,0,1-2.73,5.5c-2.34,4.39-2.33,4.35,2,6.68,1,.52,1.41.41,1.89-.55,1.45-2.88,3-5.73,4.46-8.6C418.1,129.2,418.29,128.65,418.49,128.18Zm-20.28.85c-1,.42-2,.32-2.79,1.05C397.13,131.89,397.84,131.15,398.21,129Z"/><path class="cls-2" d="M265.5,41.44H269c0-1.39-1.8-.81-1.92-2.18,1.42-.6,3.24.49,4.7-.87l-3.51-1c1.79-1.37,4.35-.53,5.56-2.58-.68-.67-1.57,0-2.33-.38-.34-.87.88-1.08.85-1.82.89-.33,1.36-1.15,2-1.71,1.9-1.55,3.22-3.76,5.52-4.85l34,20.32Q358.46,73,403,99.65c4.89,2.94,10,5.57,14.56,9a18.31,18.31,0,0,1-1.76,7.87c-2.12-.73-4.21-1.51-6.35-2.17a4.68,4.68,0,0,0-5.45,2c-1.33,1.74-.77,3.44.33,5a20.6,20.6,0,0,0,1.75,2.09,4.88,4.88,0,0,1,1.47,2.82c.17,1.6.38,3.66-1.21,4.21a4.52,4.52,0,0,1-4.73-1.61,17.19,17.19,0,0,0-1.21-1.57c-1.24-1.13-2.65-1.72-4.32-.88a3.74,3.74,0,0,0-2.2,3.85,3.31,3.31,0,0,0,2.95,3.21c2,.39,3.72,1,4.95,2.86a1.63,1.63,0,0,1-.12,2.33,5.25,5.25,0,0,1-5.39,1.75c-.89-.17-1.76-.49-2.65-.67-2-.42-3.93-.08-5,1.84a4.77,4.77,0,0,0,.55,5.81,28.25,28.25,0,0,0,4,3.72c1.26.94,1.05,1.53,0,2.41-.66.57-1.55,1-1.79,2-1.17.35-1.57,1.8-2.86,2-6.1-3.7-12.17-7.43-18.29-11.09Q324.46,119,278.6,91.56c-9.34-5.58-18.71-11.1-28.06-16.65-.27-1.57,1.17-2.82.82-4.4q.9-2.57,1.78-5.13c.34-1,.07-2.15,1-2.95L255.66,65c1.25-2-.22-3.85-.09-6.14L258,61.1c.37-1.9-.84-3.12-1.35-4.54,1.23-.38,1.5,1.18,2.73.85a6.55,6.55,0,0,0-1.9-3,.84.84,0,0,1,.46-.93l1.91,1.29c.48-1-.22-1.55-.57-2a1.55,1.55,0,0,1,.57-2.49c.83-.36,1.29.74,1.59,1.49a7.2,7.2,0,0,1-.25,5.11c-.26.79-.3,1.15.52,1.92,1,1,2,.32,2.87.43a1.72,1.72,0,0,0,1.07-1.86c-.34-2.32-.62-4.61-2.48-7,3.71.64,3,3.53,3.66,6.12.49-1.1.71-1.63,1-2.25.82.34.32,1.22.82,1.7l1.74-1.13c.17,2.54-1.37,4-2.84,5.6,2.17.42,2.79-1.54,4.05-2.39.59.51,0,1.55,1,1.86,1.06-.52.81-1.66,1.14-2.59,1.24.12,2.1,1.23,3.4,1.25,1.62,0,1.88-.55,1.19-1.9-.62-1.19-1.79-1.67-2.85-2.31.69-.83,1.86-1.23,2.05-2.44-.66-.72-1.38.14-2.1-.12,0-1.43,1.35-2.75.28-4.54-1,1.91-1.49,4-3.49,5-.65-.66,0-1.26,0-1.71.24-1.54-2.63,1.76-1.55-1.2.08-.23-1.16-.23-1.87,0-2.07.7-2.45.54-3.86-1.29,2.61.37,4.83-.43,7.13-1,1.4-.36.81-1.61,1.56-2.11a15.55,15.55,0,0,0-2.58-2.4c-1-.56-1.11.28-1.44.62-2,2.05-4.11,3.38-7.07,2.26a4.16,4.16,0,0,1,1.46-2h3.46l-2.15-1.54Zm63.3,64.47c2.24,1.51,2.68,3.87,4.27,5.62.88-2.38,0-4.19-1-6,1.83-.27,1.91,1.8,3.23,2,.4-1.61-.79-2.65-1.13-3.78.87-1.14,1.39.67,2.32.13a9.76,9.76,0,0,0-2.92-4.29c1-.23,1.44.35,2,.72s1.12.68,2,1.19c-1.14-2.7-1.14-2.7-4.87-5.79,4.79-.65,7.31,2.13,6.09,6.72-.31,1.15-1.2,2.11.52,3.3,1.05.73,1.93-.49,2.6.44,0-.91,1.4-.91,1.1-2.2-.54-2.38-.63-4.88-2.62-7,3.91.29,2.85,3.5,3.68,5.39.93-.22.45-1.37,1.29-1.49.45.5-.15,1.31.4,1.71.9.16,1-1.28,2-.77-.07,2.11-1.45,3.55-2.74,5.19,2,.19,2.64-1.48,3.75-2.27.55.51.34,1.46,1.13,1.79,1-.68.84-1.87,1.28-2.78a13.11,13.11,0,0,1,2,1.21,1.9,1.9,0,0,0,2.64.22c.72-.67-.11-1.55-.45-2.26-.52-1.1-1.81-1.33-2.58-2.07.78-.74,1.86-1.18,1.92-2.45-.68-.52-1.43.46-2.12-.11.35-1.34,1.38-2.61.35-4.46-1,2-1.32,4.07-3.48,4.8-.18-2.52-1.3-3.3-3.54-2.55-1.56.53-2.86.5-3.79-1.43,2.8.48,5.14-.33,7.46-1.19.85-.31,1-1.69.59-2.51-1.15-2.4-2.29-2.42-4.1-.52-2.35,2.45-4.78,2.8-6.61,1.14s-3.37-3.47-5.05-5.22c3.07,1.64,5.73,4.47,10.2,3.51l-4.46-2.38c2.45.11,4.25,1,6.25.32-1.07-1.24-2.7-1.12-3.71-2.16,2.07-.37,4.18.72,6.36-.48-1.91-1-4-.86-6.22-2.2,3.31.32,6.14.73,8.65-1.78-2.64-.2-5,.16-7.51-1.06,2.51-.24,4.81-.2,6.95-2.48a12.5,12.5,0,0,1-7.26-.57c2.31-.31,4.6-.55,6.43-2.83-2.22.22-4.06.62-6.32.17,1.75-.76,3.58-.64,4.79-2.39-4.31.37-7.92-1-11.54-2.47-1.16-.46-2.36-.8-3.54-1.19a5.53,5.53,0,0,0-1-.28,4.91,4.91,0,0,0-5.13,2.33c-1.07,1.71-.56,3.35.49,4.88,1.16,1.69,3,2.91,3.36,5.15a3.75,3.75,0,0,1-1,3.66c-.66.5-1.91.1-3-.19-1.68-.44-2.18-1.59-3.09-2.52-1.3-1.32-2.77-1.9-4.5-1.09a3.65,3.65,0,0,0-2.23,3.83c.15,2,1.51,2.85,3.2,3.36.47.14,1,0,1.48.19,1.82.65,3.62,1.85,3.63,3.72s-1.93,2.55-3.6,3a5,5,0,0,1-2.71-.16,18.22,18.22,0,0,0-2.91-.64c-1.88-.22-3.55.27-4.44,2.07a4.7,4.7,0,0,0,.64,5.58c3.64,4,8.54,6.79,10.92,12.31.65-2.05-.21-3.46-.5-5.22,2.23,1.26,1.85,3.68,3.13,5.31a8.67,8.67,0,0,0-.44-6.57c2.11,1.15,2.54,3.58,4,5.56C330.45,110.12,329.62,108.22,328.8,105.91Z"/><path class="cls-3" d="M250.54,74.91c9.35,5.55,18.72,11.07,28.06,16.65q45.86,27.41,91.68,54.85c6.12,3.66,12.19,7.39,18.29,11.09-2,2.31-5,3.27-7,5.54-1.86.92-3.8,1.73-5.18,3.38l-11.43,5.11a33,33,0,0,0-6,2l-12.16,2.85c-2,.22-4.15-.46-6,.83a61.24,61.24,0,0,0-12.77,0c-1.88-1.26-4-.6-6-.77l-12.19-2.86-5.84-2c-4-1.31-7.62-3.48-11.49-5.1-1.45-1.59-3.51-2.22-5.27-3.32l-9.92-7.64-4.48-4.13q-4.07-4.87-8.14-9.73a31.41,31.41,0,0,0-3.32-5.2q-2.93-5.52-5.84-11c-.15-2.15-1.33-3.92-2.09-5.85-1.13-4-2.56-7.92-3.06-12.08.17-2.1-1.16-4-.95-6.09,0-.49,0-1,0-1.48a111.36,111.36,0,0,1-.08-14.5c0-.9,0-1.81,0-2.72C249.75,80.13,250.14,77.52,250.54,74.91Z"/><path class="cls-3" d="M417.56,108.67c-4.57-3.45-9.67-6.08-14.56-9q-44.52-26.72-89.11-53.3L279.92,26l1.7-1.66a26.55,26.55,0,0,0,4.92-3.79l11-6.09c2.15-.4,4-1.7,6-2.35a88.83,88.83,0,0,1,11.72-3.65c2.18.22,4.08-1.2,6.25-1.07,4.16-.89,8.42-.67,12.62-1.11h.1c.84.48,1.77.21,2.66.26,1.64.08,3.5-.33,4.87.31A5.79,5.79,0,0,0,346.4,7a31.37,31.37,0,0,0,6.43,1.46,64.36,64.36,0,0,1,11.73,3.6l5.86,2.34a117.18,117.18,0,0,1,11,6.06c1.64,1.23,3.12,2.71,5.08,3.48l9.29,8.55c1.31,1.65,3,3,4.08,4.82,2.93,2.94,4.88,6.62,7.46,9.82a15.08,15.08,0,0,0,3.05,5.4l4.91,11.57c0,2.28,1.25,4.24,1.54,6.45.21.78.47,1.56.63,2.35.65,3.19,1.27,6.39,1.9,9.59.06,2,.11,4,.17,6l-.3,12.53c-.93,2-.8,4-.77,6.13C418.15,107.69,417.86,108.18,417.56,108.67Z"/><path class="cls-4" d="M452.86,234.54c3.24-7.22,16.25-11.09,24.21-3.41A20.2,20.2,0,0,1,482.85,243,40.33,40.33,0,0,1,481,264.36c-3.84,9.89-13,14.82-23.19,12.6-.88-.19-1.72-.59-2.6-.8-1.23-.29-2.28-2.2-3.33-1.28-.68.59-.25,2.5-.26,3.82,0,1.83,0,3.66,0,5.5,0,5.26,1.5,7,6.63,7.83.7.11,1.93-.43,1.89,1s-1.22.82-1.93.83q-11.12,0-22.23,0c-.69,0-1.71.37-1.9-.65-.25-1.3.95-1.06,1.69-1.2a4.34,4.34,0,0,0,3.91-4.2c.07-.74.15-1.49.15-2.23q0-23.85,0-47.71a24.93,24.93,0,0,0-.23-3.23c-.34-2.83-1.64-4.84-4.67-5.38-.58-.1-1.49.07-1.45-.95.05-1.26,1.08-.76,1.7-.78,5-.13,10,.24,15-.38,1.13-.13,1.41.31,1.48,1.37.17,2.58-.32,5.14.7,7.78.52,1.34-.77,3.25-.76,5,.07,9.33.11,18.65,0,28a4.94,4.94,0,0,0,2.58,4.7,9.84,9.84,0,0,0,12.61-2.2,19.26,19.26,0,0,0,3.65-9.68,69.3,69.3,0,0,0-.44-23.34,18.54,18.54,0,0,0-1-3.07c-2.23-5.46-7.16-7.08-12.17-4C455.6,232.45,454.53,233.33,452.86,234.54Z"/><path class="cls-4" d="M291.14,235.76c5.05-7.25,11.61-10.15,19.59-8.43,6,1.3,9.12,5.25,9.19,11.84.11,9.48.16,19,.21,28.46,0,5.41.34,5.88,5.44,7.54.52.17.94.28,1,.92,0,.89-.59.83-1.19.83H304.11c-.58,0-1.21.08-1.22-.81s.59-.8,1.15-1c3.5-1.1,4.32-2.12,4.34-6q.09-15.22,0-30.46c0-4.37-1.56-6.88-4.32-7.65-3.23-.91-8.44.85-10.3,3.58a13.67,13.67,0,0,0-2.72,8.57c.3,8.48.09,17,.09,25.47,0,4.28.56,5.11,4.5,6.47.56.2.85.39.88,1,.05.92-.58.82-1.17.82h-21c-.56,0-1.26.16-1.37-.68s.63-.92,1.29-1.09c4.1-1,5.05-2.15,5.07-6.4q.07-15.1,0-30.21c0-4.78-1-6-5.57-7.64-1.3-.47-.75-1.48-.85-2.3s.37-1.12,1.2-1.13c5.24-.07,10.49.31,15.71-.4,1.26-.17,1.3.64,1.3,1.56C291.13,231,291.14,233.38,291.14,235.76Z"/><path class="cls-5" d="M57.54,251.81a29.16,29.16,0,0,1,1.68-11.68C63.3,228.94,73.61,225.82,84,227.22c12.68,1.71,17.74,10.7,18.42,22.65a41,41,0,0,1-.68,10.19c-2.07,10.5-8.61,16.53-19.31,17.28C73.74,278,65.93,276.06,61,268a25.61,25.61,0,0,1-3.44-12.11C57.47,254.65,57.54,253.4,57.54,251.81Zm32.41,0a45.84,45.84,0,0,0-.42-8.64c-.61-4.63-1.46-9.23-5.06-12.69a6.35,6.35,0,0,0-9-.21,13.31,13.31,0,0,0-4,6.77c-2.33,9-2.22,18.08-.76,27.19a16.82,16.82,0,0,0,3.92,9c3.22,3.5,7.49,3.42,10.59-.16a15.47,15.47,0,0,0,3.26-6.37A56.26,56.26,0,0,0,90,251.83Z"/><path class="cls-5" d="M25.2,276.92c-7.74,0-15.49,0-23.23,0-.65,0-1.82.71-2-.7s1.09-.9,1.78-1c4.16-.58,5.24-1.53,5.26-5.76q.13-26,0-52c0-4.13-1.12-5.12-5.27-5.81-.67-.11-1.95.47-1.79-1S1.35,210,2,210q12-.09,24,0c.62,0,1.68-.48,1.7.79,0,1-.89.72-1.49.83-5.31.92-6.17,1.89-6.18,7.4q0,24.74,0,49.45c0,5.5,1.29,6.74,6.81,6.75,2.16,0,4.34.13,6.49-.06,6.85-.6,10.89-4.76,13.22-10.89a30.54,30.54,0,0,0,2-7.71c.08-.79.2-1.55,1.23-1.53,1.24,0,.85,1,.85,1.67,0,6.16-.33,12.32.41,18.45.19,1.53-.44,1.79-1.8,1.78C41.19,276.89,33.19,276.91,25.2,276.92Z"/><path class="cls-5" d="M206.26,231.54c3.59,1.33,5.46,3.7,5.12,7.29s-3.33,5.56-7.48,5.22a6,6,0,0,1-5.44-6.56,7.39,7.39,0,0,1,3.42-6.07c7.82-5.27,16.28-5.84,25-2.8,3.56,1.25,5.69,4.15,6.37,8a45.15,45.15,0,0,1,.6,8c0,8.24,0,16.48,0,24.72,0,4.14,1.22,5,5,3.41.48-.21.83-.48,1.29,0,.67.75-.15,1.07-.46,1.37-3,3-10.79,3.74-14.37,1.46-2.07-1.32-2.5-3.6-3.28-6.06-1,1.13-1.68,2.09-2.51,2.94-4,4.12-11.84,5.68-17.19,3.5-4.24-1.74-5.88-5.23-6.17-9.45-.35-5,2.08-8.61,6.31-11a54,54,0,0,1,9.64-4,41.45,41.45,0,0,0,7.34-3.08,5,5,0,0,0,2.75-4.69c0-2,0-4,0-6-.08-3.45-.65-6.72-4.22-8.38S209.4,228.6,206.26,231.54Zm15.88,17c-3.08,2.83-6.43,3.94-9.3,5.88A11.17,11.17,0,0,0,208,267.24a6.4,6.4,0,0,0,6.87,4.59c3.44-.32,7.17-3.19,7.22-5.86C222.22,260.4,222.14,254.82,222.14,248.55Z"/><path class="cls-5" d="M632.41,276.82h-7v-32c-1.27.91-.94,1.92-1,2.88-.51,9.69,1.1,19.46-1,29.11-1,0-2,.09-3,.09-.6,0-1.44.28-1.5-.78s.75-.92,1.38-1.05c2.52-.54,3.6-2.23,3.6-4.68,0-11.16.08-22.32,0-33.47-.05-4.91-3.1-7.05-7.87-5.9-4.2,1-8,5.64-8,10.5-.15,9.66-.06,19.32-.05,29,0,2.46,1.09,4.14,3.66,4.58.67.11,1.41.15,1.31,1.11s-1,.7-1.55.71q-10.12,0-20.24,0c-.64,0-1.44.18-1.46-.85,0-.82.68-.76,1.23-.91,4.41-1.19,5.08-2,5.09-6.57,0-10.08,0-20.16,0-30.23,0-4.87-.81-5.93-5.44-7.46-1.33-.43-.86-1.41-.94-2.24-.11-1,.53-1.18,1.4-1.19,5.16-.08,10.33.33,15.47-.4,1.41-.2,1.44.7,1.44,1.69,0,2.32,0,4.63,0,7.48a58.72,58.72,0,0,1,4-5.06c6.14-6.18,18.31-5.36,21.59.36.05.78-.31,1.77,1,1.94l.13.08,0,.16c0,.92,0,1.84-.07,2.75l0,0c-.75.08-2-.23-1.88.9.36,2.53-1.24,4.66-1.11,7.09h0c-1.22.18-1,1.13-1,1.93q0,10.05,0,20.12c0,.79-.23,1.75,1,1.93h0C630.88,271.35,633.06,273.91,632.41,276.82Zm-4.76-8.73c1-1.76.66-3.59.76-5.38.41-7.65-1.27-15.45,2-23-3.67,1.09-.87-2.57-2.75-2.92Zm.43-36.93c-.67.11-.65.64-.65,1.14,0,.66.24,1.13,1,1.12a.85.85,0,0,0,.91-.94C629.37,231.62,628.74,231.39,628.08,231.16Z"/><path class="cls-4" d="M408.9,243.72c0-8.41.08-16.82,0-25.23-.07-5.27-.78-6-5.87-6.84-.73-.12-1.38-.14-1.3-1.05s1-.59,1.5-.59q12.12,0,24.25,0c.54,0,1.41-.44,1.5.7s-.72.83-1.32.92c-5,.8-5.89,1.76-6,7.35-.08,5.83,0,11.66,0,17.49q0,15.12,0,30.23a27.1,27.1,0,0,0,.17,3c.45,4.23,1.07,4.84,5.29,5.49.68.11,1.91-.45,1.8,1s-1.28.72-1.93.72c-7.74.06-15.49.05-23.24,0-.68,0-1.83.67-2-.69s1.06-1,1.75-1.05c4.31-.62,5.32-1.56,5.37-6C409,260.72,408.9,252.22,408.9,243.72Z"/><path class="cls-5" d="M358,246.6c-3.92,0-7.83,0-11.75,0-1.14,0-2,.21-2.05,1.54-.32,5.27-.2,10.45,2.06,15.4,4.92,10.74,17.6,9.17,22.5,1.74a11.68,11.68,0,0,1,.8-1.26c.32-.4.45-1.12,1.31-.71s.72.92.5,1.63c-2,6.58-9.42,12.17-16.57,12.52-12.9.63-22.11-7.84-22.86-20.75-.42-7.29.07-14.31,4.2-20.61,5.32-8.13,17.21-11.58,26.13-7.69,6,2.63,8.57,7.57,9.23,13.73.48,4.46.39,4.46-4,4.46H358ZM352.49,245h7c.77,0,1.55.05,1.55-1.07,0-4.53-.28-9-3-12.89-2-2.87-5.26-3.27-8.09-1.19a10.83,10.83,0,0,0-3.16,3.81c-1.61,3.08-2.05,6.46-2.63,9.82-.23,1.32.44,1.55,1.55,1.53C348,244.93,350.24,245,352.49,245Z"/><path class="cls-5" d="M492.44,267.69c0-2.58,0-5.17,0-7.75,0-.62-.17-1.36.83-1.51s1.2.5,1.33,1.3a37.82,37.82,0,0,0,2.15,8.43,11.81,11.81,0,0,0,6,6.71c3.72,1.69,8.44.92,10.57-1.76,2.25-2.84,2-8-.88-11.07a51,51,0,0,0-5.64-4.92c-2.92-2.34-6-4.49-8.87-6.89a13.4,13.4,0,0,1-5.13-8.3c-1.29-8.3,4.29-14.45,13.58-15a21,21,0,0,1,12.2,2.82c2.35,1.39,3,1.12,4-1.51.27-.73.41-1.46,1.45-1.31,1.29.2.65,1.18.65,1.76,0,4-.1,8-.27,12,0,.8.76,2.21-1,2.3s-1.19-1.43-1.36-2.19c-.89-3.89-2.29-7.46-5.48-10.08a9.71,9.71,0,0,0-7.48-2.11c-5.14.57-7.61,5.63-5.06,10.27a15.81,15.81,0,0,0,5.08,5c4.08,2.88,8.17,5.73,12,8.9,4.65,3.82,6.6,8.62,5.15,14.39-1.42,5.61-6,8.27-11.17,9.56-5.56,1.38-11,1-16.11-2.12-3-1.81-3.08-1.69-4.72,1.42a1.27,1.27,0,0,1-1.58.82c-.8-.21-.5-.93-.5-1.47,0-2.57,0-5.15,0-7.73Z"/><path class="cls-5" d="M127,235c1.88-1.66,3.13-3.61,5-5.07,4.1-3.21,9.23-3.92,13-1.7a7.94,7.94,0,0,1,3.17,9.38c-1.28,3.32-4.4,4.8-8.15,3.89-4.13-1-5.69-5.61-3.14-9.38.5-.74,1.13-1.39,1.72-2.11a6.45,6.45,0,0,0-6.86,2.1A16.14,16.14,0,0,0,127,243.27c-.07,8.07,0,16.15,0,24.22,0,4.88,1.59,6.69,6.49,7.47a10.57,10.57,0,0,0,1.48.22c.64,0,1.18.1,1.18.91s-.57.84-1.19.84H110.25c-.57,0-1.25.14-1.36-.69s.6-1,1.27-1.12c3.93-1,4.88-1.79,4.92-5.67.12-11.24,0-22.47,0-33.7,0-3.42-1.34-6-5.12-6.55-.64-.09-1.15-.23-1.07-1s.79-.66,1.32-.67c5.15-.11,10.32.3,15.46-.42,1.19-.17,1.4.49,1.38,1.48C127,230.67,127,232.81,127,235Z"/><path class="cls-5" d="M638,274.44c1,.95,3.75-.21,3.42,1.95-.18,1.22-2.44.35-3.74.49a23.11,23.11,0,0,1-3.22-.06c-1.31-2.09-1.06-4.42-1-6.7.05-1.56-.82-1.74-2-1.65h0v-24h0c1,0,2.14.1,2-1.4a15.91,15.91,0,0,1,1-6.59h1c.6-.07.78-.58,1-1,3.72-8.05,13.31-9.77,20.08-7.83,4.62,1.32,7.1,5,7.46,10.33.66,9.65.16,19.31.33,29,0,1,0,2,.09,3,.29,3.39,1.27,4.46,4.63,5.2.66.14,1.68-.15,1.58,1.06s-1.12.72-1.74.73q-9.87,0-19.73,0c-.6,0-1.48.35-1.69-.57-.24-1.1.71-1.11,1.42-1.26,2.55-.57,3.55-2.4,3.56-4.76,0-11.08.06-22.15,0-33.22,0-2.27-.63-4.58-3-5.63a8.17,8.17,0,0,0-8.06.9,19.28,19.28,0,0,0-3.12,3.2c-.6.1-.72.49-.62,1v0c-1.69,0-1,1.29-1,2.12l.06.15-.13.1c-.86.1-1,.69-1,1.42q0,15.76,0,31.52c0,.76,0,1.62,1.21,1.21l.11.13C636.26,274.56,637.21,274.39,638,274.44Z"/><path class="cls-4" d="M261.93,248.72c0,6.58,0,13.16,0,19.74,0,4.12,1.32,6.36,5.11,6.67.71.06,1.36.27,1.27,1.17s-.85.6-1.36.6q-10.74,0-21.49,0c-.59,0-1.45.31-1.55-.73s.71-.89,1.35-1.05c3.81-.93,4.79-1.78,4.85-5.77.18-11.49.39-23-.11-34.46-.16-3.42-1.4-4.72-4.62-5.64-.68-.19-1.67-.06-1.48-1.2s1.2-.61,1.83-.6a61.12,61.12,0,0,0,14.67-.92c1.73-.37,1.52.69,1.52,1.7Z"/><path class="cls-4" d="M566.42,266.51c.89-4.7.36-9.46.44-14.19.09-5.24.06-10.49,0-15.74,0-4.54-1.17-6.07-5.42-7.39-.64-.2-1.05-.31-1-1.08,0-1,.73-.71,1.26-.69,5.24.15,10.49.22,15.65-.94,1.36-.31,1.31.56,1.31,1.43,0,3,0,6,0,9q0,14.63,0,29.23c0,1.08.13,2.16.2,3.24.19,3.12,1.7,5.14,4.85,5.74.69.13,1.39.14,1.3,1.11s-.94.68-1.52.7c-5.16.12-10.33-.31-15.47.37-.68.09-1.19,0-1-.85.67-.68.27-1.57.45-2.34C568,271.43,566.05,269.13,566.42,266.51Z"/><path class="cls-5" d="M171.43,272.46c1.75,1.92,4.12,2.34,6.51,2.72.66.11,1.68-.2,1.58,1-.09,1.07-1,.69-1.54.69q-12.1,0-24.21,0c-.61,0-1.46.28-1.54-.75s.75-.9,1.38-1.06c4-1,4.9-2.06,4.92-6.22q.08-16,0-31.94c0-3.85-.85-7.2-5.51-7.8a.85.85,0,0,1-.83-1c.08-.7.63-.64,1.12-.65,5.32-.09,10.65.29,16-.41,1-.14,1.29.52,1.07,1.42-1.74,2-1.49,4.9-.31,6.05,2.38,2.31.23,3.95,0,5.79a15.93,15.93,0,0,0-.52,2.33q0,12.81,0,25.63A5,5,0,0,0,171.43,272.46Z"/><path class="cls-5" d="M557.31,275.37l1.14-.24c0,.27,0,.54,0,.81h-.1a.51.51,0,0,0-.33.15c-7.55,3.93-17.15.41-18.87-7a34.48,34.48,0,0,1-.7-7.18c-.08-8,0-16,0-24,0-.83,0-1.67-.06-2.49-.27-3.66-1.5-5.2-5-6.22-.61-.18-1.45,0-1.35-1s1-.73,1.55-.72A87.79,87.79,0,0,0,546,227c4.23-.54,4.24-.41,4.24,3.95q0,17.48,0,34.95c0,.75,0,1.5,0,2.25.28,4.89,1.63,6.4,6.45,7.24Z"/><path class="cls-5" d="M263,210.43c0,4.16-3.12,7-7.65,7s-7.55-2.86-7.57-6.89,3-7,7.44-7C259.81,203.45,263,206.3,263,210.43Z"/><path class="cls-5" d="M181.74,229.47l-1.94,0h-.15l-1.22.33c-.56-.54-.8-.21-1,.34l-.8.38a1.53,1.53,0,0,1-1.2-.58,11.28,11.28,0,0,1,11.32-2.51c3.24,1,4.81,3.41,5.2,6.63a6.81,6.81,0,0,1-4.11,7.26c-3,1-6.61-.06-8-2.38-1.55-2.54-.79-5.93,1.91-8.46.32-.07.61-.2.61-.56S182.07,229.48,181.74,229.47Z"/><path class="cls-6" d="M309.8,173.62,322,176.48c-.11.73-.2,1.47-.33,2.2-.69,3.94-.71,4-4.53,3.26-2.59-.5-5.12-1.26-7.71-1.79-1.18-.24-1.49-.63-1.05-1.8C308.94,176.81,309.33,175.2,309.8,173.62Z"/><path class="cls-6" d="M419.34,82.52c-.63-3.2-1.25-6.4-1.9-9.59-.16-.79-.42-1.57-.63-2.35,1.52-1.46,3.65-1.21,5.44-1.91.82-.32,1,.48,1.06,1,.69,3.56,1.3,7.15,2,10.71.23,1.18-.38,1.43-1.32,1.53C422.45,82.1,420.89,82.32,419.34,82.52Z"/><path class="cls-6" d="M346.82,176.42,359,173.57c2.06,6.14,2.06,6.14-4.12,7.6-.4.1-.8.22-1.2.3C347.55,182.69,347.55,182.69,346.82,176.42Z"/><path class="cls-6" d="M255.5,125.46q2.91,5.52,5.84,11c-5.45,3.7-5.45,3.7-8.47-2.11-.12-.22-.26-.43-.36-.66-.82-1.87-2.79-3.85-2.25-5.54S253.73,126.45,255.5,125.46Z"/><path class="cls-6" d="M315.26,8.49a88.83,88.83,0,0,0-11.72,3.65,2.52,2.52,0,0,1-.49-.55c-2.4-5.42-2.41-5.44,3.24-7.23,2-.62,4-1.13,5.95-1.73,1.21-.37,1.82,0,2,1.25C314.53,5.43,314.92,7,315.26,8.49Z"/><path class="cls-6" d="M364.94,171.53l11.43-5.11c.76,1.83,3,3.68,2.44,5.19-.7,1.78-3.49,2.23-5.41,3.17-1.63.81-3.35,1.43-5,2.22-1,.48-1.47.12-1.79-.82C366.08,174.62,365.5,173.08,364.94,171.53Z"/><path class="cls-6" d="M297.53,14.49l-11,6.09a1.6,1.6,0,0,0-.1-.23c-3.37-5.13-3.37-5.13,2.09-8.24l.65-.36C294.88,8.57,294.88,8.57,297.53,14.49Z"/><path class="cls-6" d="M264.66,141.7q4.08,4.86,8.14,9.73a22.69,22.69,0,0,0-2.7,2.57c-1.28,1.65-2.23,1.71-3.54,0-1.89-2.52-4-4.92-6-7.32-.81-.93-.69-1.49.31-2.15C262.17,143.63,263.4,142.64,264.66,141.7Z"/><path class="cls-6" d="M415.27,64.13l-4.91-11.57c5.64-3.05,5.64-3.05,8.14,2.83.09.23.22.44.31.67.69,1.93,2.32,4.16,1.82,5.71S417.12,63.31,415.27,64.13Z"/><path class="cls-6" d="M381.4,20.49a117.18,117.18,0,0,0-11-6.06c.17-.37.35-.74.53-1.11,2.27-4.8,2.28-4.82,7.07-2.22,2,1.06,3.82,2.28,5.76,3.38,1,.53,1,1,.35,1.9C383.15,17.7,382.3,19.12,381.4,20.49Z"/><path class="cls-6" d="M277.28,155.56l9.92,7.64-3.49,5.13-5.12-3.49a1.3,1.3,0,0,1-.2-.15c-1.64-1.38-4.24-2.52-4.69-4.23C273.21,158.6,276.18,157.35,277.28,155.56Z"/><path class="cls-6" d="M334.13,6.31c-4.2.44-8.46.22-12.62,1.11a20.79,20.79,0,0,0-.69-3.63c-1-2.6.43-3,2.51-3.16,2.88-.16,5.76-.41,8.64-.54.75,0,1.69-.4,2.19.6C334.07,2.56,333.57,4.43,334.13,6.31Z"/><path class="cls-6" d="M292.47,166.52c3.87,1.62,7.49,3.79,11.49,5.1-.13.31-.28.6-.39.91-2,5.25-2,5.25-7.22,2.9-.38-.17-.77-.32-1.13-.51-1.81-1-4.59-1.36-5.21-3S291.67,168.38,292.47,166.52Z"/><path class="cls-6" d="M250.54,74.91c-.4,2.61-.79,5.22-1.19,7.83l-1.24-.11c-5.42-.49-5.44-.5-4.49-5.73.38-2.12,1-4.2,1.27-6.32.22-1.54.86-1.71,2.17-1.25s2.87.79,4.3,1.18C251.71,72.09,250.27,73.34,250.54,74.91Z"/><path class="cls-6" d="M364.56,12.09a64.36,64.36,0,0,0-11.73-3.6c.15-.81.27-1.62.45-2.42.91-3.94.93-4,4.69-2.94,2.62.73,5.18,1.64,7.78,2.43,1,.31,1.3.73.79,1.78C365.78,8.88,365.21,10.5,364.56,12.09Z"/><path class="cls-6" d="M281.62,24.37,279.92,26c-2.3,1.09-3.62,3.3-5.52,4.85-.69.56-1.16,1.38-2,1.71-4.91-4.3-4.92-4.31-.17-8.54,1.48-1.33,3.07-2.54,4.53-3.89.83-.77,1.33-.63,1.93.24C279.59,21.75,280.62,23.05,281.62,24.37Z"/><path class="cls-6" d="M250.35,107.53c.5,4.16,1.93,8.08,3.06,12.08-6.27,2.27-6.27,2.27-7.92-4.17a2.17,2.17,0,0,1,0-.25c-.44-2.09-1.82-4.69-1-6.13S248.29,108,250.35,107.53Z"/><path class="cls-6" d="M395.77,32.52,386.48,24l1.83-2.35c2-2.6,2-2.63,4.45-.58,1.89,1.61,3.61,3.43,5.58,4.94s1.74,2.74-.09,4.13A26.82,26.82,0,0,0,395.77,32.52Z"/><path class="cls-6" d="M407.31,47.16c-2.58-3.2-4.53-6.88-7.46-9.82,1.21-1.54,2.91-2.53,4.32-3.86.73-.68,1,0,1.3.38a104.83,104.83,0,0,1,6.49,9c.56.86.4,1.25-.42,1.71C410.11,45.41,408.72,46.3,407.31,47.16Z"/><path class="cls-6" d="M381.55,163c2-2.27,5-3.23,7-5.54,1.29-.18,1.69-1.63,2.86-2,.52.53,1.06,1,1.55,1.59,2.72,3.06,2.73,3.08-.59,5.71-1.89,1.49-3.89,2.83-5.74,4.37-1.32,1.11-2,.8-2.8-.6C383.18,165.35,382.32,164.22,381.55,163Z"/><path class="cls-6" d="M400.09,156.2a47.92,47.92,0,0,1-3.82-4.91c-.6-1,.8-1.56,1.37-2.26,1.78-2.18,3.69-4.26,5.35-6.53.77-1.05,1.16-.9,2.07-.28,4.12,2.83,4.16,2.81,1,6.7-1.47,1.8-3,3.54-4.52,5.31C401.24,154.6,401,155,400.09,156.2Z"/><path class="cls-6" d="M265.5,41.44l-.21.44A2,2,0,0,0,264,43.42a4.16,4.16,0,0,0-1.46,2c-.76.51-.73,2.33-1.91,1.81a12.91,12.91,0,0,1-4.71-3.06c-.12-.13.25-.74.46-1.08,1.84-2.95,3.88-5.76,6-8.52.82-1.07,1.42-1.17,2.3-.19,1.06,1.18,3.31,1.66,3.22,3.32C267.81,39,266.34,40.19,265.5,41.44Z"/><path class="cls-6" d="M417.56,108.67c.3-.49.59-1,.88-1.48l.24.08c6.07,1.08,6.07,1.08,4.53,7-.24.88-.49,1.76-.73,2.64-1.32,4.71-2.16,5-6.5,2.64-1.69-.94.14-2-.18-3A18.31,18.31,0,0,0,417.56,108.67Z"/><path class="cls-6" d="M258,53.49a.84.84,0,0,0-.46.93q-1.71,4-3.41,8c-.88.8-.61,2-1,2.95-.65-2-2.67-1.57-4.06-2.14s-1.88-1.05-1.25-2.65c1.22-3.07,2.47-6.13,3.85-9.13.49-1.07,1-1.38,2-.67C255.1,51.75,257,51.87,258,53.49Z"/><path class="cls-6" d="M346.4,7a5.79,5.79,0,0,1-4.64-.16c-1.37-.64-3.23-.23-4.87-.31-.89,0-1.82.22-2.66-.26,0-1.84,0-3.68,0-5.52.18-1,1-.73,1.58-.7,3.32.19,6.63.46,9.95.63,1.58.08,2,.82,1.57,2.23S347.2,5.78,346.4,7Z"/><path class="cls-6" d="M418.49,128.18c-.2.47-.39,1-.65,1.53-1.48,2.87-3,5.72-4.46,8.6-.48,1-.93,1.07-1.89.55-4.35-2.33-4.36-2.29-2-6.68a55.14,55.14,0,0,0,2.73-5.5c.51-1.31,1-1.66,2.31-1,1,.53,2.13.9,3.18,1.37C418.12,127.26,418.65,127.43,418.49,128.18Z"/><path class="cls-6" d="M328,177.25a61.24,61.24,0,0,1,12.77,0c.05,1.48,0,3,.19,4.43s-.38,1.75-1.63,1.74c-3.22,0-6.44,0-9.66,0-1.55,0-2.05-.49-1.85-2S328,178.65,328,177.25Z"/><path class="cls-6" d="M419.21,101.06l.3-12.53c2.05.15,4.75-1,6,.26s.36,4.08.4,6.2a30.89,30.89,0,0,1-.17,3.47c-.34,3.4-.36,3.39-3.81,2.92C421,101.26,420.11,101.16,419.21,101.06Z"/><path class="cls-6" d="M249.42,100c0,.49,0,1,0,1.48-.58,0-1.16.09-1.74.15-4.76.46-4.8.47-5.07-4.24-.14-2.4-.05-4.8-.14-7.2,0-1.13.45-1.49,1.47-1.38l.49,0c4.69.23,4.67.23,4.68,5C249.1,95.84,248.86,97.92,249.42,100Z"/><path class="cls-6" d="M175.47,230a1.53,1.53,0,0,0,1.2.58c-4.53,3.94-6.48,8.86-6.28,14.91.24,7.22.09,14.45,0,21.67a11.53,11.53,0,0,0,1,5.32,5,5,0,0,1-2-4.18q0-12.81,0-25.63a15.93,15.93,0,0,1,.52-2.33c.26-1.84,2.41-3.48,0-5.79-1.18-1.15-1.43-4.1.31-6.05v7C172.5,233.47,173.31,231.06,175.47,230Z"/><path class="cls-4" d="M623.41,276.82c2.11-9.65.5-19.42,1-29.11.05-1-.28-2,1-2.88v32Z"/><path class="cls-6" d="M558.43,275.94c0-.27,0-.54,0-.81,4.23-1.42,6.49-4.65,8-8.62-.37,2.62,1.62,4.92,1,7.59-.18.77.22,1.66-.45,2.34v-6.56l-.59-.26C564.19,272.32,562.21,275.35,558.43,275.94Z"/><path class="cls-6" d="M636.63,273.13c-1.21.41-1.21-.45-1.21-1.21q0-15.76,0-31.52c0-.73.15-1.32,1-1.42a27,27,0,0,0-.56,7.39c0,7.3,0,14.6,0,21.9A11.2,11.2,0,0,0,636.63,273.13Z"/><path class="cls-4" d="M631.41,268.47c1.2-.09,2.07.09,2,1.65-.08,2.28-.33,4.61,1,6.7h-2C633.06,273.91,630.88,271.35,631.41,268.47Z"/><path class="cls-2" d="M398.21,129c-.37,2.12-1.08,2.86-2.79,1.05C396.24,129.35,397.25,129.45,398.21,129Z"/><path class="cls-2" d="M334.22.78c0,1.84,0,3.68,0,5.52h-.1c-.56-1.88-.06-3.75,0-5.62a.51.51,0,0,0,.15-.07Z"/><path class="cls-6" d="M635.42,236.47h-1c0-.92.05-1.84.07-2.76Z"/><path class="cls-6" d="M634.39,233.47c-1.28-.17-.92-1.16-1-1.94A3.1,3.1,0,0,1,634.39,233.47Z"/><path class="cls-6" d="M636.49,238.73c.09-.83-.64-2.07,1-2.12Z"/><path class="cls-6" d="M638,274.44c-.74-.05-1.69.12-1.21-1.18Z"/><path class="cls-6" d="M177.47,230.18c.16-.55.4-.88,1-.34Z"/><path class="cls-6" d="M181.74,229.47c.33,0,.63.1.64.49s-.29.49-.61.56Z"/><path class="cls-6" d="M637.55,236.58c-.1-.53,0-.92.62-1Z"/><path class="cls-6" d="M557.31,275.37l-.56,0Z"/><path class="cls-6" d="M179.65,229.51h0Z"/><path class="cls-6" d="M558,276.1a.51.51,0,0,1,.33-.15Q558.25,276.18,558,276.1Z"/><path class="cls-1" d="M328.8,105.91c.82,2.31,1.65,4.21,1,6.68-1.42-2-1.85-4.41-4-5.56a8.67,8.67,0,0,1,.44,6.57c-1.28-1.63-.9-4-3.13-5.31.29,1.76,1.15,3.17.5,5.22-2.38-5.52-7.28-8.32-10.92-12.31a4.7,4.7,0,0,1-.64-5.58c.89-1.8,2.56-2.29,4.44-2.07a18.22,18.22,0,0,1,2.91.64,5,5,0,0,0,2.71.16c1.67-.41,3.62-1.22,3.6-3s-1.81-3.07-3.63-3.72c-.46-.16-1,0-1.48-.19-1.69-.51-3.05-1.38-3.2-3.36a3.65,3.65,0,0,1,2.23-3.83c1.73-.81,3.2-.23,4.5,1.09.91.93,1.41,2.08,3.09,2.52,1.09.29,2.34.69,3,.19a3.75,3.75,0,0,0,1-3.66c-.34-2.24-2.2-3.46-3.36-5.15-1.05-1.53-1.56-3.17-.49-4.88a4.91,4.91,0,0,1,5.13-2.33,5.53,5.53,0,0,1,1,.28c1.18.39,2.38.73,3.54,1.19,3.62,1.43,7.23,2.84,11.54,2.47-1.21,1.75-3,1.63-4.79,2.39,2.26.45,4.1,0,6.32-.17-1.83,2.28-4.12,2.52-6.43,2.83a12.5,12.5,0,0,0,7.26.57c-2.14,2.28-4.44,2.24-6.95,2.48,2.48,1.22,4.87.86,7.51,1.06-2.51,2.51-5.34,2.1-8.65,1.78,2.2,1.34,4.31,1.25,6.22,2.2-2.18,1.2-4.29.11-6.36.48,1,1,2.64.92,3.71,2.16-2,.72-3.8-.21-6.25-.32l4.46,2.38c-4.47,1-7.13-1.87-10.2-3.51,1.68,1.75,3.27,3.59,5.05,5.22s4.26,1.31,6.61-1.14c1.81-1.9,2.95-1.88,4.1.52.4.82.26,2.2-.59,2.51-2.32.86-4.66,1.67-7.46,1.19.93,1.93,2.23,2,3.79,1.43,2.24-.75,3.36,0,3.54,2.55,2.16-.73,2.51-2.82,3.48-4.8,1,1.85,0,3.12-.35,4.46.69.57,1.44-.41,2.12.11-.06,1.27-1.14,1.71-1.92,2.45.77.74,2.06,1,2.58,2.07.34.71,1.17,1.59.45,2.26a1.9,1.9,0,0,1-2.64-.22,13.11,13.11,0,0,0-2-1.21c-.44.91-.29,2.1-1.28,2.78-.79-.33-.58-1.28-1.13-1.79-1.11.79-1.71,2.46-3.75,2.27,1.29-1.64,2.67-3.08,2.74-5.19-1-.51-1.1.93-2,.77-.55-.4,0-1.21-.4-1.71-.84.12-.36,1.27-1.29,1.49-.83-1.89.23-5.1-3.68-5.39,2,2.17,2.08,4.67,2.62,7,.3,1.29-1.14,1.29-1.1,2.2-.67-.93-1.55.29-2.6-.44-1.72-1.19-.83-2.15-.52-3.3,1.22-4.59-1.3-7.37-6.09-6.72,3.73,3.09,3.73,3.09,4.87,5.79-.84-.51-1.41-.83-2-1.19s-1-1-2-.72a9.76,9.76,0,0,1,2.92,4.29c-.93.54-1.45-1.27-2.32-.13.34,1.13,1.53,2.17,1.13,3.78-1.32-.24-1.4-2.31-3.23-2,.95,1.8,1.85,3.61,1,6C331.48,109.78,331,107.42,328.8,105.91Zm-6.83-23c-.92.42-2.09.21-2.7,1.12-.08.12.29.88.93.93C321.77,85.05,321.34,83.54,322,82.88Z"/><path class="cls-1" d="M254.09,62.43q1.69-4,3.41-8a6.55,6.55,0,0,1,1.9,3c-1.23.33-1.5-1.23-2.73-.85.51,1.42,1.72,2.64,1.35,4.54l-2.45-2.28c-.13,2.29,1.34,4.14.09,6.14Z"/><path class="cls-1" d="M264,43.42a2,2,0,0,1,1.31-1.54l2.15,1.54Z"/><path class="cls-1" d="M90,251.83a56.26,56.26,0,0,1-1.45,14.89,15.47,15.47,0,0,1-3.26,6.37c-3.1,3.58-7.37,3.66-10.59.16a16.82,16.82,0,0,1-3.92-9c-1.46-9.11-1.57-18.19.76-27.19a13.31,13.31,0,0,1,4-6.77,6.35,6.35,0,0,1,9,.21c3.6,3.46,4.45,8.06,5.06,12.69A45.84,45.84,0,0,1,90,251.83Z"/><path class="cls-1" d="M222.14,248.55c0,6.27.08,11.85,0,17.42,0,2.67-3.78,5.54-7.22,5.86a6.4,6.4,0,0,1-6.87-4.59,11.17,11.17,0,0,1,4.83-12.81C215.71,252.49,219.06,251.38,222.14,248.55Z"/><path class="cls-4" d="M627.65,268.09V236.81c1.88.35-.92,4,2.75,2.92-3.26,7.53-1.58,15.33-2,23C628.31,264.5,628.65,266.33,627.65,268.09Z"/><path class="cls-4" d="M631.41,244.48v24c-1.22-.18-1-1.14-1-1.93q0-10.06,0-20.12C630.42,245.61,630.19,244.66,631.41,244.48Z"/><path class="cls-4" d="M634.4,236.48a15.91,15.91,0,0,0-1,6.59c.16,1.5-1,1.4-2,1.4-.13-2.43,1.47-4.56,1.11-7.09C632.36,236.25,633.65,236.56,634.4,236.48Z"/><path class="cls-4" d="M628.08,231.16c.66.23,1.29.46,1.27,1.32a.85.85,0,0,1-.91.94c-.77,0-1-.46-1-1.12C627.43,231.8,627.41,231.27,628.08,231.16Z"/><path class="cls-1" d="M352.49,245c-2.25,0-4.5,0-6.75,0-1.11,0-1.78-.21-1.55-1.53.58-3.36,1-6.74,2.63-9.82a10.83,10.83,0,0,1,3.16-3.81c2.83-2.08,6.09-1.68,8.09,1.19,2.68,3.87,3,8.36,3,12.89,0,1.12-.78,1.07-1.55,1.07Z"/><path class="cls-2" d="M322,82.88c-.63.66-.2,2.17-1.77,2.05-.64-.05-1-.81-.93-.93C319.88,83.09,321.05,83.3,322,82.88Z"/></g></g></svg>